<?xml version="1.0" encoding="utf-8"?>
<!-- Generator: Adobe Illustrator 19.2.1, SVG Export Plug-In . SVG Version: 6.00 Build 0)  -->
<svg version="1.1" id="Layer_1" xmlns="http://www.w3.org/2000/svg" xmlns:xlink="http://www.w3.org/1999/xlink" x="0px" y="0px"
	 viewBox="0 0 64 64" style="enable-background:new 0 0 64 64;" xml:space="preserve">
<style type="text/css">
	.st0{fill:#95C11F;}
	.st1{fill:#FFFFFF;}
</style>
<title>benefits</title>
<rect class="st0" width="64" height="64"/>
<path class="st1" d="M24.6,24c0,1-0.8,1.8-1.8,1.8h-6.2c-1,0-1.8-0.8-1.8-1.8v-3.7c0-1,0.8-1.8,1.8-1.8h6.2c1,0,1.8,0.8,1.8,1.8V24z
	 M24.6,33.8c0,1-0.8,1.8-1.8,1.8h-6.2c-1,0-1.8-0.8-1.8-1.8v-3.7c0-1,0.8-1.8,1.8-1.8h6.2c1,0,1.8,0.8,1.8,1.8V33.8z M24.6,43.7
	c0,1-0.8,1.8-1.8,1.8h-6.2c-1,0-1.8-0.8-1.8-1.8V40c0-1,0.8-1.8,1.8-1.8h6.2c1,0,1.8,0.8,1.8,1.8V43.7z M49.3,24
	c0,1-0.8,1.8-1.8,1.8H28.9c-1,0-1.8-0.8-1.8-1.8v-3.7c0-1,0.8-1.8,1.8-1.8h18.5c1,0,1.8,0.8,1.8,1.8V24z M49.3,33.8
	c0,1-0.8,1.8-1.8,1.8H28.9c-1,0-1.8-0.8-1.8-1.8v-3.7c0-1,0.8-1.8,1.8-1.8h18.5c1,0,1.8,0.8,1.8,1.8V33.8z M49.3,43.7
	c0,1-0.8,1.8-1.8,1.8H28.9c-1,0-1.8-0.8-1.8-1.8V40c0-1,0.8-1.8,1.8-1.8h18.5c1,0,1.8,0.8,1.8,1.8V43.7z"/>
</svg>
